<svg width="68" height="75" viewBox="0 0 68 75" fill="none" xmlns="http://www.w3.org/2000/svg">
<path d="M4.98608 39.9523L33.6224 3.06709L31.6162 41.3479L4.98608 39.9523ZM36.6094 41.6096C37.3565 40.0911 38.2202 37.4104 39.2005 33.5675C40.1807 29.7246 40.7755 25.806 40.9849 21.8114C41.1942 17.8169 41.0349 13.6918 40.5069 9.43612C39.9789 5.18044 39.4066 2.03506 38.79 3.40492e-06C42.1219 1.17599 45.3949 3.21119 48.609 6.10559C51.823 8.99999 54.6765 12.404 57.1696 16.3176C59.6626 20.2312 61.6367 24.4932 63.0919 29.1034C64.547 33.7137 65.151 38.3767 64.9039 43.0924L36.6094 41.6096ZM23.9992 59.3072C22.0019 59.2025 20.1681 58.6336 18.4976 57.6003C16.8272 56.567 15.4195 55.2971 14.2746 53.7907C13.4542 54.5822 12.5675 55.3146 11.6143 55.9878C10.6611 56.6611 9.61803 57.1906 8.48518 57.5762C6.61899 56.032 5.06225 54.1563 3.81495 51.9491C2.56764 49.7419 1.7612 47.3492 1.39564 44.771L67.971 48.26C67.3379 50.7859 66.2858 53.0812 64.8146 55.146C63.3434 57.2107 61.5991 58.9134 59.5817 60.2541C58.4954 59.7521 57.5134 59.1165 56.6358 58.3473C55.7582 57.5781 54.9529 56.757 54.2198 55.8841C52.8681 57.2597 51.3216 58.3748 49.58 59.2292C47.8385 60.0837 45.969 60.4586 43.9718 60.3539C41.9745 60.2493 40.1407 59.6803 38.4702 58.647C36.7998 57.6137 35.3921 56.3439 34.2472 54.8374C32.951 56.2159 31.4183 57.3317 29.649 58.1847C27.8797 59.0377 25.9964 59.4119 23.9992 59.3072ZM8.71819e-06 71.4011L0.348916 64.7436L3.67768 64.918C5.45302 65.0111 7.20129 64.8245 8.92249 64.3584C10.6437 63.8923 12.2823 63.1437 13.8384 62.1126C15.2782 63.3007 16.8304 64.2026 18.4949 64.8184C20.1594 65.4341 21.8793 65.7885 23.6546 65.8815C25.43 65.9746 27.1637 65.8012 28.8557 65.3613C30.5477 64.9215 32.1995 64.1875 33.811 63.1593C35.2508 64.3474 36.803 65.2493 38.4675 65.8651C40.132 66.4808 41.8519 66.8352 43.6272 66.9283C45.4026 67.0213 47.1363 66.8479 48.8283 66.4081C50.5203 65.9682 52.1721 65.2342 53.7836 64.2061C55.2789 65.3971 56.8442 66.3136 58.4795 66.9556C60.1148 67.5976 61.8201 67.9651 63.5955 68.0582L66.9242 68.2326L66.5753 74.8902L63.2466 74.7157C61.5267 74.6256 59.8455 74.3289 58.2029 73.8255C56.5603 73.3222 54.9564 72.6123 53.3911 71.6958C51.7386 72.4437 50.0692 72.982 48.3831 73.3109C46.6969 73.6398 44.9938 73.7591 43.274 73.669C41.5541 73.5789 39.8729 73.2821 38.2303 72.7788C36.5877 72.2755 34.9838 71.5656 33.4185 70.6491C31.766 71.3969 30.0966 71.9353 28.4105 72.2642C26.7243 72.593 25.0212 72.7124 23.3014 72.6223C21.5815 72.5322 19.9003 72.2354 18.2577 71.7321C16.6151 71.2288 15.0112 70.5189 13.4459 69.6024C11.7934 70.3502 10.124 70.8886 8.43785 71.2175C6.75167 71.5463 5.04864 71.6657 3.32878 71.5756L8.71819e-06 71.4011Z" fill="#0A57C2"/>
</svg>
